<svg width="72" height="91" viewBox="0 0 72 91" fill="none" xmlns="http://www.w3.org/2000/svg">
<path d="M37.2966 16.7734H34.8246C28.9486 16.7734 24.1406 21.5814 24.1406 27.4574V44.3904C24.1406 50.2664 28.9486 55.0744 34.8246 55.0744H37.2966C43.1726 55.0744 47.9806 50.2664 47.9806 44.3904V27.4574C47.9806 21.5814 43.1726 16.7734 37.2966 16.7734Z" fill="white"/>
<path d="M36.0603 22.1123C35.5108 22.1139 34.9841 22.3329 34.5955 22.7215C34.2069 23.1101 33.9879 23.6367 33.9863 24.1863V30.0203C33.9882 30.5697 34.2073 31.0961 34.5959 31.4845C34.9845 31.8728 35.5109 32.0917 36.0603 32.0933C36.6097 32.0917 37.1362 31.8728 37.5248 31.4845C37.9133 31.0961 38.1325 30.5697 38.1343 30.0203V24.1863C38.1327 23.6367 37.9137 23.1101 37.5251 22.7215C37.1365 22.3329 36.6099 22.1139 36.0603 22.1123Z" fill="#064D9F"/>
<path d="M34.499 18.0381C35.0126 18.1618 35.5122 18.3377 35.99 18.5631C38.685 19.8551 41.072 21.7861 41.375 26.0501C41.763 31.5051 39.745 41.7191 39.095 46.9071C38.642 50.5341 36.848 52.2141 34.465 54.1171C33.265 55.0781 39.732 54.9611 42.395 53.4041C42.615 53.2751 42.82 53.1561 43.013 53.0451C44.2034 52.3576 45.1945 51.3725 45.8891 50.1863C46.5837 49.0001 46.9579 47.6536 46.975 46.2791L47.231 25.8111C47.244 24.7681 47.074 23.7241 46.664 22.7651C45.786 20.7121 43.657 17.7571 38.679 17.7551C38.679 17.7551 31.954 17.4091 34.499 18.0381Z" fill="#127FFF"/>
<path d="M38.8298 54.5007H33.2928C28.3228 54.5007 24.2578 50.4357 24.2578 45.4667V26.3797C24.2578 21.4107 28.3238 17.3457 33.2928 17.3457H38.8288C43.7988 17.3457 47.8638 21.4107 47.8638 26.3797V45.4667C47.8638 50.4357 43.7978 54.5007 38.8288 54.5007" stroke="#064D9F" stroke-width="2" stroke-linecap="round" stroke-linejoin="round"/>
<path fill-rule="evenodd" clip-rule="evenodd" d="M39.7501 87.25C39.7501 88.2446 39.355 89.1984 38.6517 89.9016C37.9485 90.6049 36.9946 91 36.0001 91C35.0055 91 34.0517 90.6049 33.3484 89.9016C32.6452 89.1984 32.2501 88.2446 32.2501 87.25C32.2501 86.2554 32.6452 85.3016 33.3484 84.5984C34.0517 83.8951 35.0055 83.5 36.0001 83.5C36.9946 83.5 37.9485 83.8951 38.6517 84.5984C39.355 85.3016 39.7501 86.2554 39.7501 87.25ZM43.0876 70.6731C42.8239 70.4098 42.4665 70.2619 42.0938 70.2619C41.7212 70.2619 41.3638 70.4098 41.1001 70.6731L37.4063 74.3669V62.4062C37.4063 62.0333 37.2582 61.6756 36.9944 61.4119C36.7307 61.1482 36.373 61 36.0001 61C35.6271 61 35.2694 61.1482 35.0057 61.4119C34.742 61.6756 34.5938 62.0333 34.5938 62.4062V74.3669L30.9001 70.6731C30.6335 70.4247 30.2809 70.2895 29.9166 70.2959C29.5523 70.3024 29.2047 70.4499 28.947 70.7076C28.6894 70.9652 28.5418 71.3128 28.5354 71.6771C28.5289 72.0415 28.6642 72.394 28.9126 72.6606L35.0063 78.7544L36.0001 79.75L36.9938 78.7563L43.0876 72.6625C43.2183 72.5319 43.3219 72.3768 43.3926 72.2062C43.4634 72.0355 43.4998 71.8526 43.4998 71.6678C43.4998 71.4831 43.4634 71.3001 43.3926 71.1295C43.3219 70.9588 43.2183 70.8037 43.0876 70.6731Z" fill="white"/>
</svg>
