<svg width="72" height="72" viewBox="0 0 72 72" fill="none" xmlns="http://www.w3.org/2000/svg">
<g clip-path="url(#clip0_110_440)">
<path d="M69.9525 29.5112C70.3727 31.9275 70.582 34.3757 70.578 36.8282C70.578 47.7812 66.663 57.0422 59.85 63.3107H59.859C53.901 68.8142 45.711 72.0002 36 72.0002C26.4522 72.0002 17.2955 68.2074 10.5442 61.456C3.79285 54.7047 0 45.548 0 36.0002C0 26.4524 3.79285 17.2957 10.5442 10.5444C17.2955 3.79304 26.4522 0.000197886 36 0.000197886C44.9358 -0.0993148 53.5645 3.25737 60.084 9.3692L49.806 19.6472C46.0899 16.1068 41.132 14.1676 36 14.2472C26.6085 14.2472 18.63 20.5832 15.786 29.1152C14.2807 33.5864 14.2807 38.4275 15.786 42.8987H15.7995C18.657 51.4172 26.622 57.7532 36.0135 57.7532C40.8645 57.7532 45.0315 56.5112 48.2625 54.3152H48.249C50.1254 53.0727 51.7305 51.4627 52.9673 49.5825C54.204 47.7022 55.0467 45.5908 55.4445 43.3757H36V29.5157L69.9525 29.5112Z" fill="white"/>
</g>
<defs>
<clipPath id="clip0_110_440">
<rect width="72" height="72" fill="white"/>
</clipPath>
</defs>
</svg>
