<svg width="78" height="78" viewBox="0 0 78 78" fill="none" xmlns="http://www.w3.org/2000/svg">
<g clip-path="url(#clip0_110_448)">
<path d="M43.7227 43.875C41.6152 42.3008 39.3428 41.0947 36.9053 40.2568C34.4678 39.4189 31.916 39 29.25 39C27.0156 39 24.8574 39.292 22.7754 39.876C20.6934 40.46 18.751 41.2725 16.9482 42.3135C15.1455 43.3545 13.5078 44.624 12.0352 46.1221C10.5625 47.6201 9.29297 49.2705 8.22656 51.0732C7.16016 52.876 6.33496 54.8184 5.75098 56.9004C5.16699 58.9824 4.875 61.1406 4.875 63.375H0C0 60.3281 0.444336 57.3955 1.33301 54.5771C2.22168 51.7588 3.50391 49.1562 5.17969 46.7695C6.85547 44.3828 8.83594 42.2627 11.1211 40.4092C13.4062 38.5557 15.9961 37.0957 18.8906 36.0293C17.4688 35.1406 16.1992 34.0996 15.082 32.9062C13.9648 31.7129 13 30.3926 12.1875 28.9453C11.375 27.498 10.7783 25.9873 10.3975 24.4131C10.0166 22.8389 9.80078 21.2012 9.75 19.5C9.75 16.8086 10.2578 14.2822 11.2734 11.9209C12.2891 9.55957 13.6855 7.50293 15.4629 5.75098C17.2402 3.99902 19.3096 2.60254 21.6709 1.56152C24.0322 0.520508 26.5586 0 29.25 0C31.9414 0 34.4678 0.507812 36.8291 1.52344C39.1904 2.53906 41.2471 3.93555 42.999 5.71289C44.751 7.49023 46.1475 9.55957 47.1885 11.9209C48.2295 14.2822 48.75 16.8086 48.75 19.5C48.75 21.1758 48.5469 22.8135 48.1406 24.4131C47.7344 26.0127 47.125 27.5234 46.3125 28.9453C45.5 30.3672 44.5352 31.6748 43.418 32.8682C42.3008 34.0615 41.0186 35.1152 39.5713 36.0293C41.0947 36.6133 42.5293 37.2988 43.875 38.0859V43.875H43.7227ZM14.625 19.5C14.625 21.5312 15.0059 23.4229 15.7676 25.1748C16.5293 26.9268 17.5703 28.4756 18.8906 29.8213C20.2109 31.167 21.7598 32.2207 23.5371 32.9824C25.3145 33.7441 27.2188 34.125 29.25 34.125C31.2559 34.125 33.1475 33.7441 34.9248 32.9824C36.7021 32.2207 38.251 31.1797 39.5713 29.8594C40.8916 28.5391 41.9453 26.9902 42.7324 25.2129C43.5195 23.4355 43.9004 21.5312 43.875 19.5C43.875 17.4941 43.4941 15.6025 42.7324 13.8252C41.9707 12.0479 40.9297 10.499 39.6094 9.17871C38.2891 7.8584 36.7275 6.80469 34.9248 6.01758C33.1221 5.23047 31.2305 4.84961 29.25 4.875C27.2188 4.875 25.3271 5.25586 23.5752 6.01758C21.8232 6.7793 20.2744 7.82031 18.9287 9.14062C17.583 10.4609 16.5293 12.0225 15.7676 13.8252C15.0059 15.6279 14.625 17.5195 14.625 19.5ZM78 48.75V78H39V48.75H48.75V39H68.25V48.75H78ZM53.625 48.75H63.375V43.875H53.625V48.75ZM73.125 63.375H68.25V68.25H63.375V63.375H53.625V68.25H48.75V63.375H43.875V73.125H73.125V63.375ZM73.125 53.625H43.875V58.5H73.125V53.625Z" fill="white"/>
</g>
<defs>
<clipPath id="clip0_110_448">
<rect width="78" height="78" fill="white"/>
</clipPath>
</defs>
</svg>
