<svg width="103" height="103" viewBox="0 0 103 103" fill="none" xmlns="http://www.w3.org/2000/svg">
<path fill-rule="evenodd" clip-rule="evenodd" d="M66.4846 23.0382C73.4109 22.5627 78.7627 26.5936 82.3242 31.2435C85.9123 35.9349 88.3838 42.0606 89.7425 48.0843C91.0937 54.108 91.4571 60.5809 90.333 66.0989C89.2543 71.398 86.374 77.4595 79.8603 79.4032C73.7288 81.2299 68.3543 78.5729 64.5241 75.3572C60.6787 72.1302 57.4237 67.6086 54.8651 63.3701C53.6683 61.3785 52.5447 59.3441 51.4966 57.2709C50.4495 59.3427 49.3272 61.3759 48.1319 63.3663C45.5733 67.6086 42.3184 72.1302 38.4729 75.3572C34.6389 78.5729 29.2682 81.2299 23.1367 79.4032C16.623 77.4595 13.7427 71.4017 12.664 66.0989C11.5437 60.5809 11.9071 54.108 13.2583 48.0843C14.6132 42.0606 17.0848 35.9311 20.6766 31.2435C24.2343 26.5936 29.5861 22.5627 36.5124 23.0382C43.0072 23.4911 47.7269 27.8806 50.6677 31.6021L51.5004 32.6928L52.3293 31.5983C55.2701 27.8806 59.9898 23.4874 66.4846 23.0382ZM35.7251 34.3346C34.1355 34.2252 32.0538 35.0366 29.6997 38.1164C27.3758 41.1547 25.4455 45.6386 24.3365 50.564C23.2314 55.4894 23.0686 60.2978 23.7915 63.8494C24.416 66.9066 25.419 68.0049 26.0321 68.3899L26.2895 68.5182L26.3917 68.5559C27.2698 68.8201 28.7156 68.7447 31.1606 66.6915C33.6018 64.6458 36.0923 61.3584 38.4048 57.5313C39.4343 55.8216 40.3919 54.0703 41.251 52.387L42.2351 50.4055L43.117 48.5297L43.8966 46.801L44.559 45.2649L45.1002 43.959C44.3679 42.4922 43.5292 41.0807 42.5909 39.7356C40.1534 36.2784 37.7084 34.4743 35.7251 34.3384V34.3346ZM67.2719 34.3346C65.2886 34.4743 62.8436 36.2784 60.4062 39.7356C59.4677 41.0806 58.629 42.4922 57.8968 43.959L58.756 46.0084L59.4751 47.6465L59.8801 48.5297L60.7657 50.4055L61.7498 52.387C62.6089 54.0703 63.5627 55.8216 64.5922 57.5313C66.9047 61.3584 69.399 64.6458 71.8326 66.6915C74.1073 68.6012 75.5153 68.7975 76.4123 68.605L76.6091 68.5559C77.1011 68.405 78.4372 67.6161 79.2055 63.8457C79.9246 60.2978 79.7695 55.4894 78.6605 50.5602C77.5553 45.6386 75.625 41.1547 73.2974 38.1164C70.9394 35.0366 68.8615 34.2289 67.2719 34.3346Z" fill="white"/>
</svg>
