<svg width="81" height="81" viewBox="0 0 81 81" fill="none" xmlns="http://www.w3.org/2000/svg">
<path d="M59.7105 37.5435C59.3594 37.3755 59.005 37.2146 58.6474 37.0609C58.023 25.5386 51.7286 18.9439 41.1581 18.8764H41.0164C34.695 18.8764 29.4368 21.5764 26.2001 26.487L32.0119 30.4729C34.4284 26.8043 38.2219 26.0246 41.0198 26.0246H41.1143C44.5939 26.0449 47.223 27.0574 48.9206 29.0284C50.1592 30.4661 50.9861 32.454 51.3945 34.9582C48.0932 34.4222 44.7421 34.2603 41.4045 34.4756C31.3571 35.0561 24.894 40.9185 25.3294 49.0624C25.5487 53.19 27.6075 56.7472 31.1243 59.0659C34.0942 61.0301 37.9249 61.9886 41.904 61.7726C47.1623 61.4857 51.2865 59.4776 54.162 55.8124C56.3456 53.028 57.726 49.4201 58.3369 44.874C60.8411 46.386 62.6974 48.3739 63.7234 50.7634C65.4649 54.8302 65.5661 61.5094 60.1189 66.9532C55.3433 71.7255 49.6024 73.7876 40.9286 73.8518C31.3065 73.7842 24.0266 70.6961 19.2949 64.6819C14.8635 59.0456 12.5753 50.9119 12.4909 40.5C12.5753 30.0881 14.8635 21.951 19.2949 16.3181C24.0266 10.3039 31.3031 7.21913 40.9286 7.14825C50.6182 7.21575 58.023 10.3208 62.937 16.362C65.3468 19.3286 67.1625 23.0546 68.3606 27.3983L75.1714 25.5825C73.7201 20.2331 71.4352 15.6263 68.3302 11.8024C62.0325 4.05 52.8187 0.081 40.9522 0H40.905C29.0588 0.081 19.953 4.06687 13.8341 11.8462C8.38688 18.765 5.57888 28.3972 5.48438 40.473V40.527C5.57888 52.6028 8.38688 62.2316 13.8341 69.1537C19.953 76.9331 29.0588 80.919 40.9016 81H40.9522C51.4823 80.9258 58.9039 78.1718 65.016 72.0596C73.0181 64.0676 72.7785 54.0506 70.1393 47.9014C68.2492 43.4902 64.6414 39.9128 59.7105 37.5435ZM41.5294 54.6311C37.125 54.8809 32.5519 52.9031 32.3224 48.6709C32.1536 45.5321 34.5566 42.0255 41.7994 41.6104C42.6296 41.5598 43.443 41.5395 44.2429 41.5395C46.8754 41.5395 49.3324 41.7926 51.57 42.282C50.7364 52.704 45.8426 54.3949 41.5294 54.6311Z" fill="white"/>
</svg>
