<svg width="88" height="88" viewBox="0 0 88 88" fill="none" xmlns="http://www.w3.org/2000/svg">
<path d="M45.9373 65.63C40.293 65.3632 34.9684 62.9322 31.0695 58.8422C27.1706 54.7521 24.9972 49.3173 25.0007 43.6667C25.0007 31.53 34.864 21.6667 47.0006 21.6667C58.8073 21.6667 68.414 30.9433 68.964 42.6033L61.264 40.2933C60.6647 37.7515 59.3974 35.4159 57.5931 33.5279C55.7889 31.6399 53.5131 30.268 51.0011 29.554C48.4891 28.84 45.832 28.8099 43.3045 29.4667C40.7769 30.1235 38.4706 31.4434 36.624 33.29C34.7774 35.1366 33.4575 37.4429 32.8007 39.9705C32.1438 42.498 32.174 45.1551 32.888 47.6672C33.6019 50.1792 34.9738 52.4549 36.8619 54.2592C38.7499 56.0634 41.0855 57.3307 43.6273 57.93L45.9373 65.63ZM83.6673 43.6667C83.6673 44.7667 83.6306 45.8667 83.5206 46.9667L76.2973 44.8033C76.334 44.4367 76.334 44.0333 76.334 43.6667C76.334 27.46 63.2073 14.3333 47.0006 14.3333C30.794 14.3333 17.6673 27.46 17.6673 43.6667C17.6673 59.8733 30.794 73 47.0006 73C47.3673 73 47.7707 73 48.1373 72.9633L50.3006 80.1867C49.2006 80.2967 48.1007 80.3333 47.0006 80.3333C26.7607 80.3333 10.334 63.9067 10.334 43.6667C10.334 23.4267 26.7607 7 47.0006 7C67.2407 7 83.6673 23.4267 83.6673 43.6667ZM69.844 59.2867L83.6673 54.6667L47.0006 43.6667L58.0006 80.3333L62.6207 66.51L78.2773 82.1667L85.5373 74.9067L69.844 59.2867Z" fill="white"/>
</svg>
