<svg width="87" height="87" viewBox="0 0 87 87" fill="none" xmlns="http://www.w3.org/2000/svg">
<path d="M29 10.875C22.2701 10.875 15.8159 13.5484 11.0572 18.3072C6.29843 23.0659 3.625 29.5201 3.625 36.25C3.625 42.9799 6.29843 49.4341 11.0572 54.1928C15.8159 58.9516 22.2701 61.625 29 61.625H32.8787C32.5347 59.2206 32.5347 56.7794 32.8787 54.375H29C24.193 54.375 19.5828 52.4654 16.1837 49.0663C12.7846 45.6672 10.875 41.0571 10.875 36.25C10.875 31.443 12.7846 26.8328 16.1837 23.4337C19.5828 20.0346 24.193 18.125 29 18.125H58C60.688 18.1245 63.3425 18.7218 65.7711 19.8737C68.1998 21.0257 70.3418 22.7034 72.0421 24.7853C73.7424 26.8673 74.9582 29.3013 75.6017 31.9112C76.2452 34.521 76.3001 37.2413 75.7625 39.875C77.8982 41.9691 79.6481 44.4234 80.9317 47.125C82.7666 43.2569 83.5928 38.9874 83.3337 34.714C83.0746 30.4407 81.7384 26.3023 79.4496 22.6843C77.1608 19.0662 73.9939 16.0861 70.2435 14.0213C66.4931 11.9565 62.2812 10.8741 58 10.875H29ZM58 47.125C55.1158 47.125 52.3497 48.2708 50.3102 50.3102C48.2708 52.3497 47.125 55.1158 47.125 58C47.125 60.8842 48.2708 63.6503 50.3102 65.6898C52.3497 67.7292 55.1158 68.875 58 68.875C60.8842 68.875 63.6503 67.7292 65.6898 65.6898C67.7292 63.6503 68.875 60.8842 68.875 58C68.875 55.1158 67.7292 52.3497 65.6898 50.3102C63.6503 48.2708 60.8842 47.125 58 47.125ZM39.875 58C39.8757 55.174 40.5372 52.3873 41.8066 49.8625C43.0761 47.3376 44.9184 45.1446 47.1863 43.4586C49.4543 41.7725 52.085 40.6402 54.8685 40.1519C57.6521 39.6637 60.5112 39.8331 63.2176 40.6466C65.9239 41.4601 68.4026 42.8952 70.4556 44.8372C72.5086 46.7793 74.079 49.1745 75.0415 51.8315C76.0039 54.4886 76.3317 57.3339 75.9987 60.1402C75.6657 62.9465 74.6811 65.6361 73.1235 67.9941L82.3129 77.1871L77.1871 82.3129L67.9941 73.1235C65.2622 74.9292 62.092 75.961 58.8206 76.1093C55.5492 76.2576 52.2988 75.5168 49.4147 73.9656C46.5306 72.4144 44.1206 70.1108 42.4409 67.2997C40.7612 64.4885 39.8745 61.2748 39.875 58Z" fill="white"/>
</svg>
