<svg width="94" height="94" viewBox="0 0 94 94" fill="none" xmlns="http://www.w3.org/2000/svg">
<g clip-path="url(#clip0_114_66)">
<path fill-rule="evenodd" clip-rule="evenodd" d="M37.9368 9.83901C38.7024 9.93441 39.4418 10.1797 40.1126 10.5608C40.7834 10.9419 41.3726 11.4515 41.8465 12.0603C42.3204 12.6691 42.6697 13.3653 42.8745 14.1092C43.0794 14.853 43.1357 15.6299 43.0403 16.3955L41.6616 27.417H57.2342L58.797 14.9385C58.9902 13.3923 59.7897 11.9862 61.0197 11.0295C62.2496 10.0728 63.8093 9.64384 65.3555 9.83705C66.9017 10.0303 68.3078 10.8298 69.2645 12.0597C70.2212 13.2897 70.6501 14.8493 70.4569 16.3955L69.0782 27.417H78.3333C79.8915 27.417 81.3858 28.036 82.4876 29.1378C83.5894 30.2395 84.2083 31.7339 84.2083 33.292C84.2083 34.8502 83.5894 36.3445 82.4876 37.4463C81.3858 38.548 79.8915 39.167 78.3333 39.167H67.6095L65.6512 54.8337H76.375C77.9332 54.8337 79.4275 55.4527 80.5293 56.5544C81.631 57.6562 82.25 59.1505 82.25 60.7087C82.25 62.2668 81.631 63.7612 80.5293 64.8629C79.4275 65.9647 77.9332 66.5837 76.375 66.5837H64.1824L62.6236 79.0622C62.4304 80.6084 61.6309 82.0145 60.4009 82.9712C59.171 83.9279 57.6113 84.3568 56.0651 84.1636C54.5189 83.9704 53.1128 83.1709 52.1561 81.941C51.1994 80.711 50.7705 79.1514 50.9637 77.6052L52.3384 66.5837H36.7697L35.2108 79.0622C35.0176 80.6084 34.2181 82.0145 32.9881 82.9712C31.7582 83.9279 30.1986 84.3568 28.6524 84.1636C27.1062 83.9704 25.7001 83.1709 24.7433 81.941C23.7866 80.711 23.3577 79.1514 23.5509 77.6052L24.9218 66.5837H17.625C16.0669 66.5837 14.5725 65.9647 13.4707 64.8629C12.369 63.7612 11.75 62.2668 11.75 60.7087C11.75 59.1505 12.369 57.6562 13.4707 56.5544C14.5725 55.4527 16.0669 54.8337 17.625 54.8337H26.3905L28.3488 39.167H19.5833C18.0252 39.167 16.5309 38.548 15.4291 37.4463C14.3273 36.3445 13.7083 34.8502 13.7083 33.292C13.7083 31.7339 14.3273 30.2395 15.4291 29.1378C16.5309 28.036 18.0252 27.417 19.5833 27.417H29.8176L31.3803 14.9385C31.4753 14.1726 31.7202 13.4328 32.1011 12.7616C32.482 12.0903 32.9915 11.5007 33.6004 11.0264C34.2093 10.5521 34.9056 10.2024 35.6497 9.99732C36.3938 9.79224 37.1709 9.73579 37.9368 9.83118V9.83901ZM53.815 54.8337L55.7733 39.167H40.1967L38.2384 54.8337H53.815Z" fill="white"/>
</g>
<defs>
<clipPath id="clip0_114_66">
<rect width="94" height="94" fill="white"/>
</clipPath>
</defs>
</svg>
