<svg width="104" height="104" viewBox="0 0 104 104" fill="none" xmlns="http://www.w3.org/2000/svg">
<path d="M71.934 25.22C68.9719 21.8384 67.3394 17.4955 67.3407 13H53.9507V66.7333C53.8474 69.6411 52.6198 72.3954 50.5263 74.4161C48.4329 76.4368 45.637 77.5663 42.7273 77.5667C36.574 77.5667 31.4607 72.54 31.4607 66.3C31.4607 58.8467 38.654 53.2567 46.064 55.5533V41.86C31.114 39.8667 18.0273 51.48 18.0273 66.3C18.0273 80.73 29.9873 91 42.684 91C56.2907 91 67.3407 79.95 67.3407 66.3V39.0433C72.7703 42.9427 79.2893 45.0348 85.974 45.0233V31.6333C85.974 31.6333 77.8273 32.0233 71.934 25.22Z" fill="white"/>
</svg>
